<svg width="23" height="23" viewBox="0 0 23 23" fill="none" xmlns="http://www.w3.org/2000/svg">
<path d="M22.3098 15.7652C22.6536 15.9371 22.9114 16.3238 22.9114 16.7535C22.9114 16.7964 22.9114 16.8824 22.9114 16.9683L21.8801 21.4371C21.7512 21.9097 21.3645 22.2105 20.8918 22.2105C9.84888 22.2105 0.954346 13.316 0.954346 2.27301C0.954346 1.80035 1.25513 1.41364 1.72778 1.28473L6.19653 0.253479C6.28247 0.253479 6.36841 0.21051 6.41138 0.21051C6.84106 0.21051 7.22778 0.468323 7.39966 0.855042L9.46216 5.66754C9.50513 5.79645 9.5481 5.92535 9.5481 6.05426C9.5481 6.39801 9.37622 6.69879 9.16138 6.87067L6.54028 9.0191C8.13013 12.3707 10.7942 15.0347 14.1458 16.6246L16.2942 14.0035C16.4661 13.7886 16.7668 13.6168 17.0676 13.6168C17.2395 13.6168 17.3684 13.6597 17.4973 13.7027L22.3098 15.7652Z" fill="white"/>
</svg>
